<svg width="20" height="20" viewBox="0 0 20 20" fill="none" xmlns="http://www.w3.org/2000/svg">
<path d="M20.0001 20.0001V12.6751C20.0001 9.07507 19.2251 6.32507 15.0251 6.32507C13.0001 6.32507 11.6501 7.42507 11.1001 8.47507H11.0501V6.65007H7.07507V20.0001H11.2251V13.3751C11.2251 11.6251 11.5501 9.95007 13.7001 9.95007C15.8251 9.95007 15.8501 11.9251 15.8501 13.4751V19.9751H20.0001V20.0001Z" fill="#2E3A4B"/>
<path d="M0.324951 6.65002H4.47495V20H0.324951V6.65002Z" fill="#2E3A4B"/>
<path d="M2.4 0C1.075 0 0 1.075 0 2.4C0 3.725 1.075 4.825 2.4 4.825C3.725 4.825 4.8 3.725 4.8 2.4C4.8 1.075 3.725 0 2.4 0Z" fill="#2E3A4B"/>
</svg>
