<svg width="20" height="20" viewBox="0 0 20 20" fill="none" xmlns="http://www.w3.org/2000/svg">
<path d="M14.9996 0H4.99988C2.25019 0 0 2.25019 0 4.99988V15.0001C0 17.7491 2.25019 20 4.99988 20H14.9996C17.7493 20 19.9995 17.7491 19.9995 15.0001V4.99988C19.9995 2.25019 17.7493 0 14.9996 0ZM18.3328 15.0001C18.3328 16.8376 16.8381 18.3333 14.9996 18.3333H4.99988C3.16218 18.3333 1.66671 16.8376 1.66671 15.0001V4.99988C1.66671 3.16193 3.16218 1.66671 4.99988 1.66671H14.9996C16.8381 1.66671 18.3328 3.16193 18.3328 4.99988V15.0001Z" fill="#2E3A4B"/>
<path d="M15.4171 5.83313C16.1074 5.83313 16.6671 5.2735 16.6671 4.58316C16.6671 3.89282 16.1074 3.33319 15.4171 3.33319C14.7267 3.33319 14.1671 3.89282 14.1671 4.58316C14.1671 5.2735 14.7267 5.83313 15.4171 5.83313Z" fill="#2E3A4B"/>
<path d="M9.99976 4.99988C7.23781 4.99988 4.99988 7.23806 4.99988 9.99976C4.99988 12.7604 7.23781 15.0001 9.99976 15.0001C12.7609 15.0001 14.9996 12.7604 14.9996 9.99976C14.9996 7.23806 12.7609 4.99988 9.99976 4.99988ZM9.99976 13.3334C8.15903 13.3334 6.66659 11.841 6.66659 9.99976C6.66659 8.15854 8.15903 6.66659 9.99976 6.66659C11.8405 6.66659 13.3329 8.15854 13.3329 9.99976C13.3329 11.841 11.8405 13.3334 9.99976 13.3334Z" fill="#2E3A4B"/>
</svg>
