<svg width="51" height="50" viewBox="0 0 51 50" fill="none" xmlns="http://www.w3.org/2000/svg">
<path d="M48.2399 17.5465C47.9333 17.5474 47.6323 17.6289 47.3671 17.7828C47.1018 17.9367 46.8818 18.1577 46.7289 18.4235H38.5732C38.5191 17.2417 38.3562 16.0675 38.0865 14.9157H42.1012C42.2374 14.9157 42.3716 14.884 42.4934 14.8231C42.6152 14.7622 42.7211 14.6738 42.8028 14.5649L44.5278 12.2646C44.9086 12.3073 45.293 12.2232 45.6212 12.0254C45.9495 11.8276 46.2035 11.5272 46.3438 11.1705C46.4842 10.8139 46.5031 10.421 46.3977 10.0525C46.2923 9.68403 46.0684 9.36056 45.7606 9.13214C45.4529 8.90373 45.0784 8.78308 44.6952 8.78888C44.312 8.79468 43.9414 8.92659 43.6407 9.16421C43.34 9.40183 43.126 9.73192 43.0317 10.1034C42.9375 10.4749 42.9683 10.8671 43.1194 11.2193L41.6628 13.1618H37.5858C36.5416 10.0462 34.7189 7.24896 32.2905 5.03526C29.8622 2.82156 26.9087 1.26476 23.7101 0.512451C20.5114 -0.239855 17.1737 -0.162734 14.0132 0.736503C10.8527 1.63574 7.97428 3.32729 5.65078 5.65078C3.32729 7.97428 1.63574 10.8527 0.736503 14.0132C-0.162734 17.1737 -0.239855 20.5114 0.512451 23.7101C1.26476 26.9087 2.82156 29.8622 5.03526 32.2905C7.24896 34.7189 10.0462 36.5416 13.1618 37.5858V43.4167L11.2202 44.8733C10.8734 44.7251 10.4881 44.6926 10.1214 44.7806C9.75472 44.8687 9.42617 45.0726 9.18449 45.3621C8.94282 45.6516 8.80089 46.0113 8.77975 46.3878C8.75862 46.7643 8.85941 47.1376 9.06717 47.4523C9.27493 47.7671 9.5786 48.0064 9.93314 48.135C10.2877 48.2635 10.6742 48.2743 11.0354 48.1659C11.3966 48.0574 11.7132 47.8354 11.9382 47.5328C12.1633 47.2302 12.2848 46.8631 12.2848 46.486C12.2821 46.4176 12.2754 46.3493 12.2646 46.2817L14.5649 44.5567C14.6738 44.475 14.7622 44.3691 14.8231 44.2473C14.884 44.1256 14.9157 43.9913 14.9157 43.8551V38.0848C16.0675 38.3545 17.2417 38.5174 18.4235 38.5715V46.7272C18.0891 46.9202 17.8278 47.2182 17.68 47.5749C17.5323 47.9316 17.5064 48.3271 17.6063 48.7C17.7062 49.073 17.9264 49.4025 18.2327 49.6376C18.539 49.8726 18.9143 50 19.3004 50C19.6865 50 20.0618 49.8726 20.3682 49.6376C20.6745 49.4025 20.8947 49.073 20.9946 48.7C21.0945 48.3271 21.0686 47.9316 20.9208 47.5749C20.7731 47.2182 20.5118 46.9202 20.1774 46.7272V38.5715C21.3592 38.5176 22.5335 38.3544 23.6852 38.0839V45.6091C23.6852 45.7452 23.7169 45.8795 23.7778 46.0012C23.8387 46.123 23.9271 46.2289 24.036 46.3106L26.3362 48.0356C26.3255 48.1032 26.3187 48.1715 26.3161 48.2399C26.3161 48.617 26.4376 48.9841 26.6627 49.2867C26.8877 49.5893 27.2043 49.8113 27.5655 49.9198C27.9267 50.0282 28.3132 50.0174 28.6677 49.8889C29.0223 49.7604 29.3259 49.521 29.5337 49.2062C29.7415 48.8915 29.8423 48.5182 29.8211 48.1417C29.8 47.7652 29.6581 47.4055 29.4164 47.116C29.1747 46.8265 28.8462 46.6226 28.4795 46.5345C28.1128 46.4465 27.7275 46.479 27.3807 46.6272L25.4391 45.1706V37.584C25.9504 37.4087 26.4564 37.2227 26.9562 37.0061C26.7274 36.1303 26.5603 35.2395 26.4564 34.3402C23.1958 35.8902 19.5199 36.3389 15.9823 35.6188C12.4446 34.8987 9.23659 33.0487 6.84134 30.3475C4.4461 27.6463 2.99324 24.2401 2.70155 20.6416C2.40986 17.0432 3.29511 13.4474 5.22402 10.3957C7.15292 7.34397 10.0211 5.0015 13.3966 3.72101C16.7721 2.44051 20.4722 2.29131 23.9399 3.29586C27.4075 4.30042 30.455 6.40435 32.6233 9.29086C34.7917 12.1774 35.9636 15.6902 35.9626 19.3004C35.9672 21.1513 35.6588 22.9895 35.0505 24.7376L38.0409 23.8168C38.3335 22.6235 38.5097 21.4047 38.5671 20.1774H46.7298C46.8839 20.4443 47.1057 20.666 47.3727 20.8199C47.6398 20.9739 47.9427 21.0547 48.2509 21.0543C48.5592 21.0539 48.8619 20.9723 49.1285 20.8177C49.3952 20.6631 49.6164 20.4409 49.7698 20.1735C49.9233 19.9062 50.0036 19.6032 50.0026 19.2949C50.0016 18.9867 49.9195 18.6841 49.7643 18.4177C49.6092 18.1514 49.3866 17.9306 49.119 17.7777C48.8514 17.6247 48.5482 17.545 48.2399 17.5465Z" fill="url(#paint0_linear_13_90)"/>
<path d="M26.9387 27.2281L32.8845 25.404C33.759 23.4882 34.2106 21.4065 34.2087 19.3004C34.2131 16.0335 33.1457 12.8552 31.1702 10.2532C29.1947 7.65115 26.4202 5.769 23.2721 4.89541C20.1241 4.02182 16.7764 4.20504 13.7425 5.41695C10.7087 6.62886 8.15608 8.80255 6.47633 11.6046C4.79658 14.4067 4.0824 17.6825 4.44333 20.9295C4.80426 24.1764 6.22037 27.2154 8.47447 29.5802C10.7286 31.945 13.6962 33.5051 16.9221 34.0211C20.1481 34.5372 23.4543 33.9808 26.3337 32.4372C26.3249 32.2881 26.3161 32.1391 26.3161 31.99V28.07C26.3167 27.8816 26.3774 27.6984 26.4894 27.5469C26.6014 27.3955 26.7588 27.2838 26.9387 27.2281ZM23.6853 17.5465C23.4527 17.5465 23.2296 17.4541 23.0652 17.2897C22.9007 17.1252 22.8083 16.9022 22.8083 16.6696C22.8083 16.437 22.9007 16.2139 23.0652 16.0495C23.2296 15.885 23.4527 15.7926 23.6853 15.7926H27.1931C27.4256 15.7926 27.6487 15.885 27.8132 16.0495C27.9776 16.2139 28.07 16.437 28.07 16.6696C28.07 16.9022 27.9776 17.1252 27.8132 17.2897C27.6487 17.4541 27.4256 17.5465 27.1931 17.5465H26.3161V21.9313C26.3161 22.1639 26.2237 22.3869 26.0593 22.5514C25.8948 22.7159 25.6717 22.8083 25.4392 22.8083C25.2066 22.8083 24.9835 22.7159 24.8191 22.5514C24.6546 22.3869 24.5622 22.1639 24.5622 21.9313V17.5465H23.6853ZM10.9694 12.9715L18.862 8.41131C18.9953 8.33435 19.1465 8.29382 19.3005 8.29382C19.4544 8.29382 19.6056 8.33435 19.739 8.41131L27.6315 12.9715C27.7321 13.0286 27.8203 13.1051 27.8912 13.1965C27.962 13.2879 28.0141 13.3924 28.0444 13.5041C28.0747 13.6157 28.0826 13.7322 28.0677 13.8469C28.0528 13.9615 28.0154 14.0722 27.9576 14.1723C27.8997 14.2725 27.8227 14.3602 27.7308 14.4304C27.6389 14.5007 27.5341 14.5521 27.4223 14.5816C27.3104 14.6112 27.1939 14.6184 27.0793 14.6027C26.9647 14.587 26.8544 14.5488 26.7546 14.4904L19.3005 10.1871L11.8464 14.4904C11.6451 14.6048 11.4067 14.635 11.1832 14.5743C10.9597 14.5136 10.7693 14.367 10.6535 14.1665C10.5377 13.9659 10.5059 13.7277 10.5651 13.5039C10.6243 13.28 10.7697 13.0886 10.9694 12.9715ZM21.0544 18.4235C21.287 18.4235 21.51 18.5159 21.6745 18.6803C21.839 18.8448 21.9313 19.0679 21.9313 19.3004C21.9313 19.533 21.839 19.7561 21.6745 19.9205C21.51 20.085 21.287 20.1774 21.0544 20.1774H19.3005V21.9313C19.3005 22.1639 19.2081 22.3869 19.0436 22.5514C18.8792 22.7159 18.6561 22.8083 18.4235 22.8083C18.1909 22.8083 17.9679 22.7159 17.8034 22.5514C17.639 22.3869 17.5466 22.1639 17.5466 21.9313V16.6696C17.5466 16.437 17.639 16.2139 17.8034 16.0495C17.9679 15.885 18.1909 15.7926 18.4235 15.7926H21.0544C21.287 15.7926 21.51 15.885 21.6745 16.0495C21.839 16.2139 21.9313 16.437 21.9313 16.6696C21.9313 16.9022 21.839 17.1252 21.6745 17.2897C21.51 17.4541 21.287 17.5465 21.0544 17.5465H19.3005V18.4235H21.0544ZM10.5309 16.6696C10.5309 16.4814 10.5914 16.2981 10.7036 16.1469C10.8157 15.9958 10.9735 15.8847 11.1536 15.8301C11.3338 15.7755 11.5267 15.7804 11.7039 15.8439C11.8811 15.9074 12.0331 16.0263 12.1375 16.1829L14.0388 19.0374V16.6696C14.0388 16.437 14.1312 16.2139 14.2956 16.0495C14.4601 15.885 14.6831 15.7926 14.9157 15.7926C15.1483 15.7926 15.3714 15.885 15.5358 16.0495C15.7003 16.2139 15.7927 16.437 15.7927 16.6696V21.9313C15.7927 22.1195 15.7322 22.3028 15.6201 22.454C15.5079 22.6051 15.3501 22.7162 15.17 22.7708C14.9898 22.8254 14.7969 22.8205 14.6197 22.757C14.4426 22.6935 14.2905 22.5746 14.1861 22.418L12.2849 19.5635V21.9313C12.2849 22.1639 12.1925 22.3869 12.028 22.5514C11.8635 22.7159 11.6405 22.8083 11.4079 22.8083C11.1753 22.8083 10.9523 22.7159 10.7878 22.5514C10.6233 22.3869 10.5309 22.1639 10.5309 21.9313V16.6696ZM19.739 30.1861C19.6056 30.263 19.4544 30.3036 19.3005 30.3036C19.1465 30.3036 18.9953 30.263 18.862 30.1861L10.9694 25.6259C10.7697 25.5088 10.6243 25.3174 10.5651 25.0935C10.5059 24.8697 10.5377 24.6314 10.6535 24.4309C10.7693 24.2303 10.9597 24.0837 11.1832 24.0231C11.4067 23.9624 11.6451 23.9926 11.8464 24.107L19.3005 28.4137L26.7546 24.1105C26.9559 23.9961 27.1943 23.9659 27.4178 24.0266C27.6413 24.0872 27.8317 24.2339 27.9475 24.4344C28.0633 24.635 28.095 24.8732 28.0359 25.097C27.9767 25.3209 27.8313 25.5123 27.6315 25.6294L19.739 30.1861Z" fill="url(#paint1_linear_13_90)"/>
<path d="M38.4908 25.5145L32.9388 27.222L28.0699 28.7189V31.99C28.0699 32.1329 28.0796 32.2741 28.0831 32.4162C28.1505 35.3203 28.9034 38.1675 30.2803 40.7254C31.6573 43.2832 33.6193 45.4795 36.0064 47.135L38.5934 48.9239L41.1804 47.135C43.6292 45.4403 45.6306 43.1771 47.0128 40.5394C48.3951 37.9016 49.1171 34.968 49.1168 31.99V28.7189L38.5934 25.483L38.4908 25.5145ZM46.7403 29.8239C46.9194 29.8782 47.0764 29.9883 47.1884 30.1382C47.3005 30.2881 47.3616 30.4699 47.3629 30.657V31.99C47.364 34.6831 46.7119 37.3363 45.4625 39.7221C44.2131 42.1078 42.4037 44.155 40.1894 45.688L39.0933 46.4509C38.9447 46.5482 38.771 46.5999 38.5934 46.5999C38.4158 46.5999 38.2421 46.5482 38.0935 46.4509L37.0061 45.688C34.792 44.1542 32.9822 42.1071 31.7315 39.7217C30.4807 37.3362 29.8262 34.6834 29.8239 31.99V30.657C29.8252 30.4699 29.8863 30.2881 29.9983 30.1382C30.1104 29.9883 30.2674 29.8782 30.4465 29.8239L31.2735 29.5696L37.684 27.5964L38.3391 27.3947C38.5045 27.3421 38.6822 27.3421 38.8477 27.3947L46.7403 29.8239Z" fill="url(#paint2_linear_13_90)"/>
<path d="M36.5359 29.7809L31.5776 31.3059V31.99C31.5838 34.3989 32.1705 36.7708 33.2879 38.9049C34.4054 41.039 36.0206 42.8724 37.9969 44.2498L38.5933 44.6619L39.1896 44.2498C41.1704 42.8769 42.7891 41.0445 43.9071 38.9094C45.025 36.7742 45.609 34.4 45.6089 31.99V31.3059L38.5933 29.1486L36.5359 29.7809ZM43.2972 33.0125C43.4616 33.1769 43.554 33.3999 43.554 33.6325C43.554 33.865 43.4616 34.088 43.2972 34.2525L38.3363 39.2134C38.1719 39.3778 37.9488 39.4702 37.7163 39.4702C37.4838 39.4702 37.2608 39.3778 37.0963 39.2134L34.6163 36.7325C34.5325 36.6516 34.4657 36.5549 34.4198 36.4479C34.3738 36.3409 34.3496 36.2258 34.3486 36.1094C34.3476 35.9929 34.3698 35.8774 34.4139 35.7697C34.458 35.6619 34.5231 35.564 34.6054 35.4816C34.6878 35.3993 34.7857 35.3342 34.8934 35.2901C35.0012 35.246 35.1167 35.2238 35.2331 35.2248C35.3496 35.2258 35.4646 35.25 35.5716 35.296C35.6786 35.3419 35.7754 35.4087 35.8563 35.4925L37.7163 37.3534L42.0572 33.0125C42.2217 32.8481 42.4447 32.7557 42.6772 32.7557C42.9098 32.7557 43.1328 32.8481 43.2972 33.0125Z" fill="url(#paint3_linear_13_90)"/>
<defs>
<linearGradient id="paint0_linear_13_90" x1="25.0006" y1="54.2681" x2="25.0006" y2="1.67016" gradientUnits="userSpaceOnUse">
<stop stop-color="#1A125F"/>
<stop offset="0.205" stop-color="#423795"/>
<stop offset="0.681" stop-color="#ED1A58"/>
<stop offset="1" stop-color="#54C2EF"/>
</linearGradient>
<linearGradient id="paint1_linear_13_90" x1="780.628" y1="1971.14" x2="780.628" y2="180.387" gradientUnits="userSpaceOnUse">
<stop stop-color="#1A125F"/>
<stop offset="0.205" stop-color="#423795"/>
<stop offset="0.681" stop-color="#ED1A58"/>
<stop offset="1" stop-color="#54C2EF"/>
</linearGradient>
<linearGradient id="paint2_linear_13_90" x1="1038.32" y1="1569.63" x2="1038.32" y2="163.691" gradientUnits="userSpaceOnUse">
<stop stop-color="#1A125F"/>
<stop offset="0.205" stop-color="#423795"/>
<stop offset="0.681" stop-color="#ED1A58"/>
<stop offset="1" stop-color="#54C2EF"/>
</linearGradient>
<linearGradient id="paint3_linear_13_90" x1="705.078" y1="1051.07" x2="705.078" y2="120.615" gradientUnits="userSpaceOnUse">
<stop stop-color="#1A125F"/>
<stop offset="0.205" stop-color="#423795"/>
<stop offset="0.681" stop-color="#ED1A58"/>
<stop offset="1" stop-color="#54C2EF"/>
</linearGradient>
</defs>
</svg>
