<svg width="40" height="40" viewBox="0 0 40 40" fill="none" xmlns="http://www.w3.org/2000/svg">
<path d="M16.4844 22.7189H27.0704C27.3326 22.7189 27.5625 22.5455 27.6335 22.2938L29.9774 14.0905C30.0277 13.9137 29.9932 13.7237 29.8823 13.5767C29.7712 13.4303 29.5985 13.3437 29.4142 13.3437H15.1317L14.7128 11.459C14.6533 11.1906 14.4153 11 14.1406 11H10.5859C10.2621 11 10 11.2621 10 11.5859C10 11.9099 10.2621 12.1719 10.5859 12.1719H13.6703L15.7863 21.6933C15.1637 21.964 14.7265 22.5837 14.7265 23.3048C14.7265 24.274 15.5151 25.0626 16.4844 25.0626H27.0704C27.3944 25.0626 27.6564 24.8006 27.6564 24.4767C27.6564 24.1529 27.3944 23.8907 27.0704 23.8907H16.4844C16.1616 23.8907 15.8984 23.6281 15.8984 23.3048C15.8984 22.9815 16.1616 22.7189 16.4844 22.7189Z" fill="#2E3A4B"/>
<path d="M15.8984 26.8204C15.8984 27.7898 16.687 28.5782 17.6564 28.5782C18.6256 28.5782 19.4142 27.7898 19.4142 26.8204C19.4142 25.8512 18.6256 25.0626 17.6564 25.0626C16.687 25.0626 15.8984 25.8512 15.8984 26.8204Z" fill="#2E3A4B"/>
<path d="M24.1407 26.8204C24.1407 27.7898 24.9293 28.5782 25.8985 28.5782C26.8679 28.5782 27.6563 27.7898 27.6563 26.8204C27.6563 25.8512 26.8679 25.0626 25.8985 25.0626C24.9293 25.0626 24.1407 25.8512 24.1407 26.8204Z" fill="#2E3A4B"/>
<circle cx="20" cy="20" r="19.5" stroke="#2E3A4B"/>
</svg>
