<svg width="40" height="40" viewBox="0 0 40 40" fill="none" xmlns="http://www.w3.org/2000/svg">
<path d="M19.6667 19.3333C22.244 19.3333 24.3333 17.244 24.3333 14.6667C24.3333 12.0893 22.244 10 19.6667 10C17.0893 10 15 12.0893 15 14.6667C15 17.244 17.0893 19.3333 19.6667 19.3333Z" fill="#2E3A4B"/>
<path d="M22.98 20.6667H16.3533C14.9341 20.6684 13.5735 21.233 12.5699 22.2366C11.5663 23.2401 11.0018 24.6007 11 26.02V29.3333C11 29.5101 11.0702 29.6797 11.1953 29.8047C11.3203 29.9298 11.4899 30 11.6667 30H27.6667C27.8435 30 28.013 29.9298 28.1381 29.8047C28.2631 29.6797 28.3333 29.5101 28.3333 29.3333V26.02C28.3316 24.6007 27.767 23.2401 26.7634 22.2366C25.7599 21.233 24.3993 20.6684 22.98 20.6667Z" fill="#2E3A4B"/>
<circle cx="20" cy="20" r="19.5" stroke="#2E3A4B"/>
</svg>
