<svg width="40" height="40" viewBox="0 0 40 40" fill="none" xmlns="http://www.w3.org/2000/svg">
<path d="M29.0156 28.2168L24.2555 23.2662C25.4794 21.8113 26.15 19.9807 26.15 18.075C26.15 13.6225 22.5275 10 18.075 10C13.6225 10 10 13.6225 10 18.075C10 22.5275 13.6225 26.15 18.075 26.15C19.7465 26.15 21.3394 25.6458 22.7013 24.6888L27.4975 29.677C27.6979 29.8852 27.9676 30 28.2565 30C28.53 30 28.7895 29.8957 28.9864 29.7061C29.4049 29.3034 29.4182 28.6357 29.0156 28.2168ZM18.075 12.1065C21.3661 12.1065 24.0435 14.7839 24.0435 18.075C24.0435 21.3661 21.3661 24.0435 18.075 24.0435C14.7839 24.0435 12.1065 21.3661 12.1065 18.075C12.1065 14.7839 14.7839 12.1065 18.075 12.1065Z" fill="#2E3A4B"/>
<circle cx="20" cy="20" r="19.5" stroke="#2E3A4B"/>
</svg>
