<svg width="11" height="12" viewBox="0 0 11 12" fill="none" xmlns="http://www.w3.org/2000/svg">
<path d="M10.625 1.99997C10.625 2.89746 9.89752 3.62503 9.00003 3.62503C8.10254 3.62503 7.37506 2.89746 7.37506 1.99997C7.37506 1.10257 8.10254 0.375 9.00003 0.375C9.89752 0.375 10.625 1.10257 10.625 1.99997Z" fill="#2E3A4B"/>
<path d="M9.00003 4.00003C7.897 4.00003 7.00006 3.103 7.00006 1.99997C7.00006 0.897034 7.897 0 9.00003 0C10.1031 0 11 0.897034 11 1.99997C11 3.103 10.1031 4.00003 9.00003 4.00003ZM9.00003 0.75C8.31055 0.75 7.75006 1.31104 7.75006 1.99997C7.75006 2.689 8.31055 3.25003 9.00003 3.25003C9.68951 3.25003 10.25 2.689 10.25 1.99997C10.25 1.31104 9.68951 0.75 9.00003 0.75Z" fill="#2E3A4B"/>
<path d="M10.625 9.99994C10.625 10.8973 9.89752 11.6249 9.00003 11.6249C8.10254 11.6249 7.37506 10.8973 7.37506 9.99994C7.37506 9.10245 8.10254 8.37488 9.00003 8.37488C9.89752 8.37488 10.625 9.10245 10.625 9.99994Z" fill="#2E3A4B"/>
<path d="M9.00003 11.9999C7.897 11.9999 7.00006 11.1029 7.00006 9.99994C7.00006 8.89691 7.897 7.99988 9.00003 7.99988C10.1031 7.99988 11 8.89691 11 9.99994C11 11.1029 10.1031 11.9999 9.00003 11.9999ZM9.00003 8.74988C8.31055 8.74988 7.75006 9.31091 7.75006 9.99994C7.75006 10.6889 8.31055 11.2499 9.00003 11.2499C9.68951 11.2499 10.25 10.6889 10.25 9.99994C10.25 9.31091 9.68951 8.74988 9.00003 8.74988Z" fill="#2E3A4B"/>
<path d="M3.62503 6.00009C3.62503 6.89758 2.89746 7.62506 1.99997 7.62506C1.10257 7.62506 0.375 6.89758 0.375 6.00009C0.375 5.1026 1.10257 4.37512 1.99997 4.37512C2.89746 4.37512 3.62503 5.1026 3.62503 6.00009Z" fill="#2E3A4B"/>
<path d="M1.99997 8.00006C0.897034 8.00006 0 7.10312 0 6.00009C0 4.89706 0.897034 4.00012 1.99997 4.00012C3.103 4.00012 4.00003 4.89706 4.00003 6.00009C4.00003 7.10312 3.103 8.00006 1.99997 8.00006ZM1.99997 4.75012C1.31049 4.75012 0.75 5.31107 0.75 6.00009C0.75 6.68912 1.31049 7.25006 1.99997 7.25006C2.68954 7.25006 3.25003 6.68912 3.25003 6.00009C3.25003 5.31107 2.68954 4.75012 1.99997 4.75012Z" fill="#2E3A4B"/>
<path d="M3.18061 5.75989C3.00657 5.75989 2.83757 5.66935 2.74555 5.50739C2.60905 5.26789 2.6931 4.96238 2.9326 4.82532L7.57203 2.18036C7.81153 2.04285 8.11705 2.1269 8.2541 2.36732C8.3906 2.60682 8.30656 2.91233 8.06706 3.04938L3.42753 5.69434C3.34953 5.73884 3.26457 5.75989 3.18061 5.75989Z" fill="#2E3A4B"/>
<path d="M7.81961 9.88492C7.73557 9.88492 7.65061 9.86386 7.5726 9.81937L2.93308 7.17441C2.69358 7.0379 2.60962 6.73239 2.74613 6.49234C2.88208 6.25238 3.18805 6.16788 3.4281 6.30539L8.06763 8.95035C8.30713 9.08685 8.39109 9.39236 8.25458 9.63241C8.16211 9.79437 7.99311 9.88492 7.81961 9.88492Z" fill="#2E3A4B"/>
</svg>
