<svg width="99" height="106" viewBox="0 0 99 106" fill="none" xmlns="http://www.w3.org/2000/svg">
<path d="M30.9771 6.74917C31.9772 6.19436 32.3385 4.93146 31.7801 3.93135C31.2253 2.93124 29.9624 2.5699 28.9623 3.12835C27.9622 3.68315 27.6008 4.94606 28.1593 5.94617C28.7141 6.94628 29.977 7.30762 30.9771 6.74917Z" fill="#EAACF6" fill-opacity="0.14"/>
<path d="M37.2885 17.7169C38.6619 16.8448 39.0682 15.0245 38.196 13.6512C37.3239 12.2778 35.5036 11.8715 34.1303 12.7436C32.757 13.6157 32.3507 15.436 33.2228 16.8094C34.0949 18.1827 35.9152 18.589 37.2885 17.7169Z" fill="#EAACF6" fill-opacity="0.14"/>
<path d="M72.2951 81.0084C71.295 81.5632 70.9336 82.8261 71.4921 83.8262C72.0469 84.8263 73.3098 85.1876 74.3098 84.6292C75.3099 84.0744 75.6713 82.8115 75.1128 81.8114C74.5544 80.815 73.2951 80.4536 72.2951 81.0084Z" fill="#EAACF6" fill-opacity="0.14"/>
<path d="M66.1412 69.9526C64.7213 70.7447 64.2067 72.5368 64.9987 73.9566C65.7908 75.3765 67.5829 75.8911 69.0028 75.0991C70.4226 74.307 70.9373 72.5149 70.1452 71.0951C69.3568 69.6716 67.561 69.1606 66.1412 69.9526Z" fill="#EAACF6" fill-opacity="0.14"/>
<path d="M29.7872 80.3222C28.8053 79.7346 27.5315 80.0521 26.9438 81.034C26.3562 82.0158 26.6737 83.2897 27.6556 83.8773C28.6374 84.465 29.9113 84.1474 30.4989 83.1656C31.0902 82.1837 30.769 80.9099 29.7872 80.3222Z" fill="#EAACF6" fill-opacity="0.14"/>
<path d="M36.2951 69.4708C34.9008 68.6349 33.0904 69.0875 32.2546 70.4818C31.4187 71.8761 31.8713 73.6865 33.2656 74.5224C34.6599 75.3582 36.4703 74.9056 37.3062 73.5113C38.142 72.117 37.6894 70.3066 36.2951 69.4708Z" fill="#EAACF6" fill-opacity="0.14"/>
<path d="M73.4813 7.43538C74.4632 8.02303 75.7371 7.70549 76.3247 6.72364C76.9124 5.74178 76.5948 4.46793 75.613 3.88028C74.6311 3.29263 73.3572 3.61017 72.7696 4.59202C72.1819 5.57387 72.4995 6.84773 73.4813 7.43538Z" fill="#EAACF6" fill-opacity="0.14"/>
<path d="M66.977 18.2905C68.3713 19.1263 70.1817 18.6738 71.0176 17.2794C71.8534 15.8851 71.4008 14.0747 70.0065 13.2389C68.6122 12.403 66.8018 12.8556 65.966 14.2499C65.1265 15.6442 65.579 17.4546 66.977 18.2905Z" fill="#EAACF6" fill-opacity="0.14"/>
<path d="M7.0732 41.8074C5.9271 41.8074 5 42.7345 5 43.8806C5 45.0267 5.9271 45.9538 7.0732 45.9538C8.2193 45.9538 9.14641 45.0267 9.14641 43.8806C9.14641 42.7345 8.2193 41.8074 7.0732 41.8074Z" fill="#EAACF6" fill-opacity="0.14"/>
<path d="M20.9357 45.9623C22.086 44.812 22.086 42.947 20.9357 41.7967C19.7854 40.6464 17.9204 40.6464 16.7701 41.7967C15.6198 42.947 15.6198 44.812 16.7701 45.9623C17.9204 47.1126 19.7854 47.1126 20.9357 45.9623Z" fill="#EAACF6" fill-opacity="0.14"/>
<path d="M96.1989 41.8074C95.0528 41.8074 94.1257 42.7345 94.1257 43.8806C94.1257 45.0267 95.0528 45.9538 96.1989 45.9538C97.345 45.9538 98.2721 45.0267 98.2721 43.8806C98.2721 42.7345 97.3414 41.8074 96.1989 41.8074Z" fill="#EAACF6" fill-opacity="0.14"/>
<path d="M84.8959 46.7863C86.5017 46.5257 87.5922 45.0126 87.3315 43.4068C87.0709 41.801 85.5579 40.7106 83.9521 40.9712C82.3463 41.2318 81.2558 42.7448 81.5164 44.3506C81.777 45.9564 83.29 47.0469 84.8959 46.7863Z" fill="#EAACF6" fill-opacity="0.14"/>
<path d="M20.2192 21.5162C20.5815 20.0526 19.6887 18.5723 18.2251 18.21C16.7614 17.8476 15.2811 18.7404 14.9188 20.2041C14.5564 21.6678 15.4492 23.148 16.9129 23.5104C18.3766 23.8727 19.8569 22.9799 20.2192 21.5162Z" fill="#EAACF6" fill-opacity="0.14"/>
<path d="M29.4988 32.6861C31.5136 32.8211 33.2583 31.2991 33.397 29.2843C33.5321 27.2695 32.01 25.5248 29.9952 25.3861C27.9804 25.251 26.2357 26.7731 26.097 28.7879C25.9583 30.8027 27.484 32.5474 29.4988 32.6861Z" fill="#EAACF6" fill-opacity="0.14"/>
<path d="M84.3839 64.0724C83.0297 64.7367 82.4713 66.3719 83.1356 67.7261C83.7999 69.0802 85.4351 69.6386 86.7892 68.9743C88.1434 68.31 88.7018 66.6749 88.0375 65.3207C87.3732 63.9666 85.738 63.4081 84.3839 64.0724Z" fill="#EAACF6" fill-opacity="0.14"/>
<path d="M71.795 55.0606C69.981 55.9512 69.2327 58.1412 70.1197 59.9552C71.0103 61.7692 73.2003 62.5175 75.0143 61.6305C76.8284 60.7399 77.5766 58.55 76.6897 56.7359C75.7991 54.9219 73.6091 54.17 71.795 55.0606Z" fill="#EAACF6" fill-opacity="0.14"/>
<path d="M17.64 62.1306C16.326 61.3896 14.6616 61.8532 13.9206 63.1635C13.1797 64.4739 13.6432 66.1419 14.9536 66.8829C16.2676 67.6238 17.932 67.1603 18.6729 65.8499C19.4139 64.5359 18.9503 62.8715 17.64 62.1306Z" fill="#EAACF6" fill-opacity="0.14"/>
<path d="M29.3444 60.6743C31.3507 60.4417 32.7885 58.6265 32.5558 56.6202C32.3232 54.6138 30.5081 53.176 28.5017 53.4087C26.4954 53.6414 25.0575 55.4565 25.2902 57.4628C25.5229 59.4692 27.338 60.907 29.3444 60.6743Z" fill="#EAACF6" fill-opacity="0.14"/>
<path d="M86.8293 20.1447C85.3219 20.1593 84.1101 21.393 84.1247 22.9004C84.1393 24.4079 85.373 25.6197 86.8804 25.6051C88.3879 25.5905 89.5997 24.3568 89.5851 22.8493C89.5705 21.3382 88.3368 20.1301 86.8293 20.1447Z" fill="#EAACF6" fill-opacity="0.14"/>
<path d="M74.1858 26.6709C72.1637 26.6891 70.5431 28.3426 70.5613 30.3647C70.5796 32.3868 72.233 34.0074 74.2551 33.9891C76.2772 33.9709 77.8978 32.3174 77.8796 30.2953C77.8613 28.2732 76.2079 26.649 74.1858 26.6709Z" fill="#EAACF6" fill-opacity="0.14"/>
<path d="M50.2126 82.2896C48.9059 83.0415 48.4606 84.7132 49.2125 86.0162C49.9644 87.3229 51.6361 87.7682 52.9391 87.0163C54.2458 86.2644 54.6911 84.5927 53.9392 83.2897C53.1873 81.983 51.5156 81.5341 50.2126 82.2896Z" fill="#EAACF6" fill-opacity="0.14"/>
<path d="M49.7454 66.8135C47.997 67.8246 47.3947 70.0621 48.4058 71.8104C49.4169 73.5588 51.6543 74.161 53.4027 73.15C55.151 72.1389 55.7533 69.9015 54.7422 68.1531C53.7348 66.4047 51.4974 65.8025 49.7454 66.8135Z" fill="#EAACF6" fill-opacity="0.14"/>
<path d="M50.2126 5.09206C51.5192 5.84396 53.1873 5.39865 53.9392 4.09196C54.6911 2.78526 54.2458 1.11722 52.9391 0.365325C51.6324 -0.386572 49.9644 0.0587225 49.2125 1.36542C48.4606 2.66846 48.9059 4.33651 50.2126 5.09206Z" fill="#EAACF6" fill-opacity="0.14"/>
<path d="M54.6293 19.4264C55.7469 17.7438 55.2889 15.4738 53.6064 14.3562C51.9238 13.2387 49.6539 13.6967 48.5363 15.3792C47.4187 17.0618 47.8767 19.3317 49.5592 20.4493C51.2418 21.5669 53.5117 21.1089 54.6293 19.4264Z" fill="#EAACF6" fill-opacity="0.14"/>
<path d="M59.5782 37.4237C63.0174 37.0006 65.4625 33.8695 65.0394 30.4303C64.6163 26.991 61.4852 24.546 58.046 24.9691C54.6068 25.3922 52.1617 28.5232 52.5848 31.9625C53.0079 35.4017 56.1389 37.8468 59.5782 37.4237Z" fill="#EAACF6" fill-opacity="0.14"/>
<path d="M64.2578 53.4436C62.535 50.436 58.7025 49.3958 55.6985 51.1186C52.6909 52.8414 51.6507 56.6739 53.3735 59.6778C55.0963 62.6854 58.9288 63.7257 61.9327 62.0029C64.9403 60.2837 65.9806 56.4476 64.2578 53.4436Z" fill="#EAACF6" fill-opacity="0.14"/>
<path d="M67.8209 50.5983C71.2414 50.0432 73.5643 46.8203 73.0092 43.3998C72.454 39.9792 69.2311 37.6564 65.8106 38.2115C62.3901 38.7666 60.0672 41.9895 60.6223 45.4101C61.1775 48.8306 64.4004 51.1535 67.8209 50.5983Z" fill="#EAACF6" fill-opacity="0.14"/>
<path d="M45.1289 37.4284C48.5668 36.9932 51.0009 33.8534 50.5657 30.4156C50.1305 26.9777 46.9907 24.5436 43.5528 24.9789C40.115 25.4141 37.6809 28.5539 38.1161 31.9917C38.5513 35.4295 41.6911 37.8636 45.1289 37.4284Z" fill="#EAACF6" fill-opacity="0.14"/>
<path d="M49.7782 59.6779C51.501 56.6702 50.4571 52.8377 47.4532 51.1186C44.4456 49.3957 40.6131 50.4396 38.8939 53.4436C37.1711 56.4512 38.215 60.2838 41.219 62.0029C44.2266 63.7257 48.0591 62.6855 49.7782 59.6779Z" fill="#EAACF6" fill-opacity="0.14"/>
<path d="M37.354 50.5987C40.7745 50.0436 43.0974 46.8207 42.5422 43.4001C41.9871 39.9796 38.7642 37.6567 35.3437 38.2119C31.9231 38.767 29.6003 41.9899 30.1554 45.4105C30.7105 48.831 33.9334 51.1539 37.354 50.5987Z" fill="#EAACF6" fill-opacity="0.14"/>
<path d="M25.9771 24.7492C26.9772 24.1944 27.3385 22.9315 26.7801 21.9313C26.2253 20.9312 24.9624 20.5699 23.9623 21.1283C22.9622 21.6832 22.6008 22.9461 23.1593 23.9462C23.7141 24.9463 24.977 25.3076 25.9771 24.7492Z" fill="#EAACF6" fill-opacity="0.14"/>
<path d="M32.2885 35.7169C33.6619 34.8448 34.0682 33.0245 33.196 31.6512C32.3239 30.2778 30.5036 29.8715 29.1303 30.7436C27.757 31.6157 27.3507 33.436 28.2228 34.8094C29.0949 36.1827 30.9152 36.589 32.2885 35.7169Z" fill="#EAACF6" fill-opacity="0.14"/>
<path d="M67.2951 99.0084C66.295 99.5632 65.9336 100.826 66.4921 101.826C67.0469 102.826 68.3098 103.188 69.3098 102.629C70.3099 102.074 70.6713 100.812 70.1128 99.8114C69.5544 98.815 68.2951 98.4536 67.2951 99.0084Z" fill="#EAACF6" fill-opacity="0.14"/>
<path d="M61.1412 87.9526C59.7213 88.7447 59.2067 90.5368 59.9987 91.9566C60.7908 93.3765 62.5829 93.8911 64.0028 93.0991C65.4226 92.307 65.9373 90.5149 65.1452 89.0951C64.3568 87.6716 62.561 87.1606 61.1412 87.9526Z" fill="#EAACF6" fill-opacity="0.14"/>
<path d="M24.7872 98.3222C23.8053 97.7346 22.5315 98.0521 21.9438 99.034C21.3562 100.016 21.6737 101.29 22.6556 101.877C23.6374 102.465 24.9113 102.147 25.4989 101.166C26.0902 100.184 25.769 98.9099 24.7872 98.3222Z" fill="#EAACF6" fill-opacity="0.14"/>
<path d="M31.2951 87.4708C29.9008 86.6349 28.0904 87.0875 27.2546 88.4818C26.4187 89.8761 26.8713 91.6865 28.2656 92.5224C29.6599 93.3582 31.4703 92.9056 32.3062 91.5113C33.142 90.117 32.6894 88.3066 31.2951 87.4708Z" fill="#EAACF6" fill-opacity="0.14"/>
<path d="M68.4813 25.4354C69.4632 26.023 70.7371 25.7055 71.3247 24.7236C71.9124 23.7418 71.5948 22.4679 70.613 21.8803C69.6311 21.2926 68.3572 21.6102 67.7696 22.592C67.1819 23.5739 67.4995 24.8477 68.4813 25.4354Z" fill="#EAACF6" fill-opacity="0.14"/>
<path d="M61.977 36.2905C63.3713 37.1263 65.1817 36.6738 66.0176 35.2794C66.8534 33.8851 66.4008 32.0747 65.0065 31.2389C63.6122 30.403 61.8018 30.8556 60.966 32.2499C60.1265 33.6442 60.579 35.4546 61.977 36.2905Z" fill="#EAACF6" fill-opacity="0.14"/>
<path d="M2.0732 59.8074C0.927098 59.8074 0 60.7345 0 61.8806C0 63.0267 0.927098 63.9538 2.0732 63.9538C3.2193 63.9538 4.14641 63.0267 4.14641 61.8806C4.14641 60.7345 3.2193 59.8074 2.0732 59.8074Z" fill="#EAACF6" fill-opacity="0.14"/>
<path d="M15.9357 63.9623C17.086 62.812 17.086 60.947 15.9357 59.7967C14.7854 58.6464 12.9204 58.6464 11.7701 59.7967C10.6198 60.947 10.6198 62.812 11.7701 63.9623C12.9204 65.1126 14.7854 65.1126 15.9357 63.9623Z" fill="#EAACF6" fill-opacity="0.14"/>
<path d="M91.1989 59.8074C90.0528 59.8074 89.1257 60.7345 89.1257 61.8806C89.1257 63.0267 90.0528 63.9538 91.1989 63.9538C92.345 63.9538 93.2721 63.0267 93.2721 61.8806C93.2721 60.7345 92.3414 59.8074 91.1989 59.8074Z" fill="#EAACF6" fill-opacity="0.14"/>
<path d="M79.8959 64.7863C81.5017 64.5257 82.5922 63.0126 82.3315 61.4068C82.0709 59.801 80.5579 58.7106 78.9521 58.9712C77.3463 59.2318 76.2558 60.7448 76.5164 62.3506C76.777 63.9564 78.29 65.0469 79.8959 64.7863Z" fill="#EAACF6" fill-opacity="0.14"/>
<path d="M15.2192 39.5162C15.5815 38.0526 14.6887 36.5723 13.2251 36.21C11.7614 35.8476 10.2811 36.7404 9.91876 38.2041C9.55643 39.6678 10.4492 41.148 11.9129 41.5104C13.3766 41.8727 14.8569 40.9799 15.2192 39.5162Z" fill="#EAACF6" fill-opacity="0.14"/>
<path d="M24.4988 50.6861C26.5136 50.8211 28.2583 49.2991 28.397 47.2843C28.5321 45.2695 27.01 43.5248 24.9952 43.3861C22.9804 43.251 21.2357 44.7731 21.097 46.7879C20.9583 48.8027 22.484 50.5474 24.4988 50.6861Z" fill="#EAACF6" fill-opacity="0.14"/>
<path d="M79.5282 82.2799C78.1741 82.9442 77.6156 84.5794 78.2799 85.9335C78.9442 87.2877 80.5794 87.8461 81.9335 87.1818C83.2877 86.5175 83.8461 84.8824 83.1818 83.5282C82.5175 82.1741 80.8823 81.6156 79.5282 82.2799Z" fill="#EAACF6" fill-opacity="0.14"/>
<path d="M54.5282 51.2799C53.1741 51.9442 52.6156 53.5794 53.2799 54.9335C53.9442 56.2877 55.5794 56.8461 56.9335 56.1818C58.2877 55.5175 58.8461 53.8824 58.1818 52.5282C57.5175 51.1741 55.8823 50.6156 54.5282 51.2799Z" fill="#EAACF6" fill-opacity="0.14"/>
<path d="M66.795 73.0606C64.981 73.9512 64.2327 76.1412 65.1197 77.9552C66.0103 79.7692 68.2003 80.5175 70.0143 79.6305C71.8284 78.7399 72.5766 76.55 71.6897 74.7359C70.7991 72.9219 68.6091 72.17 66.795 73.0606Z" fill="#EAACF6" fill-opacity="0.14"/>
<path d="M12.64 80.1306C11.326 79.3896 9.66158 79.8532 8.92064 81.1635C8.17969 82.4739 8.64324 84.1419 9.95359 84.8829C11.2676 85.6238 12.932 85.1603 13.6729 83.8499C14.4139 82.5359 13.9503 80.8715 12.64 80.1306Z" fill="#EAACF6" fill-opacity="0.14"/>
<path d="M24.3444 78.6743C26.3507 78.4417 27.7885 76.6265 27.5558 74.6202C27.3232 72.6138 25.5081 71.176 23.5017 71.4087C21.4954 71.6414 20.0575 73.4565 20.2902 75.4628C20.5229 77.4692 22.338 78.907 24.3444 78.6743Z" fill="#EAACF6" fill-opacity="0.14"/>
<path d="M81.8293 38.1447C80.3219 38.1593 79.1101 39.393 79.1247 40.9004C79.1393 42.4079 80.373 43.6197 81.8804 43.6051C83.3879 43.5905 84.5997 42.3568 84.5851 40.8493C84.5705 39.3382 83.3368 38.1301 81.8293 38.1447Z" fill="#EAACF6" fill-opacity="0.14"/>
<path d="M69.1858 44.6709C67.1637 44.6891 65.5431 46.3426 65.5613 48.3647C65.5796 50.3868 67.233 52.0074 69.2551 51.9891C71.2772 51.9709 72.8978 50.3174 72.8796 48.2953C72.8613 46.2732 71.2079 44.649 69.1858 44.6709Z" fill="#EAACF6" fill-opacity="0.14"/>
<path d="M42.6246 47.0002C40.6025 47.0185 38.9819 48.6719 39.0002 50.694C39.0184 52.7161 40.6719 54.3367 42.694 54.3185C44.7161 54.3002 46.3367 52.6468 46.3184 50.6247C46.3002 48.6026 44.6467 46.9783 42.6246 47.0002Z" fill="#EAACF6" fill-opacity="0.14"/>
<path d="M56.6246 63.0002C54.6025 63.0185 52.9819 64.6719 53.0002 66.694C53.0184 68.7161 54.6719 70.3367 56.694 70.3185C58.7161 70.3002 60.3367 68.6468 60.3184 66.6247C60.3002 64.6026 58.6467 62.9783 56.6246 63.0002Z" fill="#EAACF6" fill-opacity="0.14"/>
<path d="M45.2126 100.29C43.9059 101.042 43.4606 102.713 44.2125 104.016C44.9644 105.323 46.6361 105.768 47.9391 105.016C49.2458 104.264 49.6911 102.593 48.9392 101.29C48.1873 99.983 46.5156 99.5341 45.2126 100.29Z" fill="#EAACF6" fill-opacity="0.14"/>
<path d="M46.3654 65.3669C45.0587 66.1188 44.6134 67.7905 45.3653 69.0935C46.1172 70.4002 47.7889 70.8455 49.092 70.0936C50.3986 69.3417 50.8439 67.6701 50.092 66.367C49.3401 65.0603 47.6685 64.6114 46.3654 65.3669Z" fill="#EAACF6" fill-opacity="0.14"/>
<path d="M44.7454 84.8135C42.997 85.8246 42.3948 88.0621 43.4058 89.8104C44.4169 91.5588 46.6543 92.161 48.4027 91.15C50.1511 90.1389 50.7533 87.9015 49.7423 86.1531C48.7349 84.4047 46.4974 83.8025 44.7454 84.8135Z" fill="#EAACF6" fill-opacity="0.14"/>
<path d="M52.8302 75.4907C51.0819 76.5017 50.4796 78.7392 51.4907 80.4876C52.5017 82.2359 54.7392 82.8382 56.4875 81.8271C58.2359 80.8161 58.8382 78.5786 57.8271 76.8302C56.8197 75.0819 54.5822 74.4796 52.8302 75.4907Z" fill="#EAACF6" fill-opacity="0.14"/>
<path d="M65.8302 59.4907C64.0819 60.5017 63.4796 62.7392 64.4907 64.4876C65.5017 66.2359 67.7392 66.8382 69.4875 65.8271C71.2359 64.8161 71.8382 62.5786 70.8271 60.8302C69.8197 59.0819 67.5822 58.4796 65.8302 59.4907Z" fill="#EAACF6" fill-opacity="0.14"/>
<path d="M45.2126 23.0921C46.5192 23.844 48.1873 23.3987 48.9392 22.092C49.6911 20.7853 49.2458 19.1172 47.9391 18.3653C46.6324 17.6134 44.9644 18.0587 44.2125 19.3654C43.4606 20.6685 43.9059 22.3365 45.2126 23.0921Z" fill="#EAACF6" fill-opacity="0.14"/>
<path d="M49.6293 37.4264C50.7469 35.7438 50.2889 33.4738 48.6064 32.3562C46.9238 31.2387 44.6539 31.6967 43.5363 33.3792C42.4187 35.0618 42.8767 37.3317 44.5592 38.4493C46.2418 39.5669 48.5117 39.1089 49.6293 37.4264Z" fill="#EAACF6" fill-opacity="0.14"/>
<path d="M44.7783 77.6778C46.5011 74.6702 45.4572 70.8377 42.4532 69.1185C39.4456 67.3957 35.6131 68.4396 33.894 71.4436C32.1712 74.4512 33.2151 78.2838 36.219 80.0029C39.2266 81.7257 43.0591 80.6855 44.7783 77.6778Z" fill="#EAACF6" fill-opacity="0.14"/>
<path d="M38.5365 63.2389C39.4977 61.5609 38.9153 59.4226 37.2392 58.4635C35.5611 57.5023 33.4227 58.0847 32.4635 59.7607C31.5023 61.4387 32.0847 63.5769 33.7608 64.5361C35.4389 65.4973 37.5773 64.9169 38.5365 63.2389Z" fill="#EAACF6" fill-opacity="0.14"/>
<path d="M28.0271 79.2878L20 79.0995L37.1164 60.4691C38.6707 58.74 40.5289 57.4035 42.6426 56.4919C44.638 55.6314 46.757 55.1957 48.9379 55.1957C48.9755 55.1957 49.0132 55.1957 49.0508 55.1957C51.2721 55.2118 53.4234 55.6771 55.4403 56.5779C57.5432 57.5164 59.3825 58.8798 60.9127 60.6305L77.6929 79.2689L69.4722 79.2582L56.5348 64.4598C55.564 63.3492 54.3969 62.4833 53.0684 61.889C51.7884 61.3162 50.425 61.0231 49.0132 61.0123C47.5987 61.0016 46.2326 61.2786 44.9472 61.8325C43.6107 62.408 42.4329 63.2578 41.4459 64.3549L28.0271 79.2878Z" fill="#7B75A3"/>
<path d="M28.0271 27L20 27.1882L37.1164 45.8186C38.6707 47.5478 40.5289 48.8843 42.6426 49.7959C44.638 50.6564 46.757 51.0921 48.9379 51.0921C48.9755 51.0921 49.0132 51.0921 49.0508 51.0921C51.2721 51.0759 53.4234 50.6107 55.4403 49.7098C57.5432 48.7713 59.3825 47.4079 60.9127 45.6573L77.6929 27.0188L69.4722 27.0296L56.5348 41.828C55.564 42.9386 54.3969 43.8045 53.0684 44.3988C51.7884 44.9716 50.425 45.2647 49.0132 45.2754C47.5987 45.2862 46.2326 45.0092 44.9472 44.4552C43.6107 43.8798 42.4329 43.03 41.4459 41.9328L28.0271 27Z" fill="#7B75A3"/>
</svg>
