<svg width="12" height="12" viewBox="0 0 12 12" fill="none" xmlns="http://www.w3.org/2000/svg">
<path d="M6.00045 0C2.68923 0 0.000449562 2.68884 0.000449562 6.00039C0.00244969 7.06009 0.290387 8.09721 0.823887 9.01133L0.0106056 11.4512C-0.0415224 11.6076 0.107368 11.7564 0.26373 11.7043L2.59732 10.9266C3.59751 11.619 4.78165 11.9982 6.00006 12C9.31146 11.9999 12.0001 9.31132 12.0001 6C12.0001 2.6886 9.31165 7.59685e-05 6.00045 0ZM3.99537 5.4C4.32436 5.4 4.59537 5.67103 4.59537 6C4.59537 6.32905 4.32436 6.6 3.99537 6.6C3.66638 6.6 3.39577 6.32905 3.39576 6C3.39576 5.67103 3.66638 5.4 3.99537 5.4ZM6.00045 5.4C6.32944 5.4 6.60045 5.67103 6.60045 6C6.60044 6.32905 6.32944 6.6 6.00045 6.6C5.67146 6.6 5.40045 6.32905 5.40045 6C5.40045 5.67103 5.67145 5.4 6.00045 5.4ZM7.99537 5.4C8.32436 5.4 8.59537 5.67103 8.59537 6C8.59537 6.32905 8.32436 6.6 7.99537 6.6C7.66638 6.6 7.39537 6.32905 7.39537 6C7.39537 5.67103 7.66638 5.4 7.99537 5.4Z" fill="#2E3A4B"/>
</svg>
