<svg width="10" height="13" viewBox="0 0 10 13" fill="none" xmlns="http://www.w3.org/2000/svg">
<path d="M8.78528 0C8.15425 0 7.6427 0.511545 7.6427 1.14258V6.50006C7.6427 6.71039 7.81322 6.88092 8.02356 6.88092H9.547C9.75733 6.88092 9.92786 6.71039 9.92786 6.50006V1.14258C9.92786 0.511545 9.41631 0 8.78528 0Z" fill="#2E3A4B"/>
<path d="M1.90432 0C0.853151 0 0 0.853126 0 1.90432V12.6193C0 12.764 0.0837892 12.8935 0.213307 12.962C0.342774 13.0229 0.495143 13.0077 0.60935 12.9239L3.45313 10.8063L6.27152 12.9239C6.37369 13.0034 6.51372 13.028 6.66758 12.962C6.7971 12.8934 6.88089 12.764 6.88089 12.6193C6.88089 6.92776 6.88089 5.96579 6.88089 1.14258C6.88089 0.712259 7.02981 0.319262 7.27147 0H1.90432Z" fill="#2E3A4B"/>
</svg>
