<svg width="151" height="5" viewBox="0 0 151 5" fill="none" xmlns="http://www.w3.org/2000/svg">
<path d="M75.4631 2.37827C75.3943 2.32328 75.3668 2.25456 75.3668 2.15833C75.3668 2.07585 75.4081 1.99336 75.4631 1.93837C76.6316 0.989808 77.8276 0 80.2196 0C82.5704 0 83.7664 0.948555 84.9211 1.88337C86.0759 0.948555 87.272 0 89.6227 0C91.8498 0 93.0458 0.852337 94.1456 1.74591C95.2454 0.866084 96.4414 0 98.6684 0C101.019 0 102.215 0.948555 103.37 1.88337C104.525 0.948555 105.721 0 108.072 0H150.509C150.647 0 150.757 0.123729 150.757 0.261201C150.757 0.412421 150.647 0.522403 150.509 0.522403H108.072C105.955 0.522403 104.868 1.31975 103.782 2.19957C104.813 3.02441 105.9 3.73926 107.893 3.73926H150.509C150.647 3.73926 150.757 3.86299 150.757 4.00046C150.757 4.15168 150.647 4.26166 150.509 4.26166H107.893C105.666 4.26166 104.47 3.40933 103.37 2.51575C102.27 3.39558 101.074 4.26166 98.8471 4.26166C96.4964 4.26166 95.3004 3.31309 94.1456 2.37827C92.9908 3.31309 91.7948 4.26166 89.444 4.26166C87.217 4.26166 86.0209 3.40933 84.9211 2.51575C83.8214 3.39558 82.6254 4.26166 80.3983 4.26166C78.0338 4.3029 76.7553 3.43681 75.4631 2.37827ZM80.2196 0.549882C78.1713 0.549882 77.0852 1.306 76.0129 2.15833C77.1815 3.09315 78.3225 3.76676 80.3846 3.76676C82.3779 3.76676 83.4639 3.05189 84.495 2.22705C83.4227 1.34723 82.3367 0.549882 80.2196 0.549882ZM89.6227 0.549882C87.5057 0.549882 86.4196 1.34723 85.3336 2.22705C86.3646 3.05189 87.4507 3.76676 89.444 3.76676C91.5611 3.76676 92.6471 2.96942 93.7332 2.08959C92.7021 1.26475 91.6161 0.549882 89.6227 0.549882ZM98.6684 0.549882C96.6751 0.549882 95.589 1.26475 94.558 2.08959C95.644 2.96942 96.7438 3.76676 98.8471 3.76676C100.84 3.76676 101.927 3.05189 102.958 2.22705C101.872 1.34723 100.786 0.549882 98.6684 0.549882Z" fill="#2460FF"/>
<path d="M0.526855 4.04945C0.526855 3.89823 0.636824 3.78824 0.774296 3.78824H43.2121C45.3292 3.78824 46.4153 2.9909 47.5013 2.11107C46.4703 1.28624 45.3842 0.571384 43.3908 0.571384H0.774296C0.636824 0.571384 0.526855 0.447655 0.526855 0.310183C0.526855 0.158962 0.636824 0.0489807 0.774296 0.0489807H43.3908C45.6179 0.0489807 46.8139 0.901318 47.9137 1.79489C49.0135 0.915066 50.2095 0.0489807 52.4366 0.0489807C54.7873 0.0489807 55.9971 0.997537 57.1381 1.93235C58.2929 0.997537 59.4889 0.0489807 61.8397 0.0489807C64.0668 0.0489807 65.2627 0.901318 66.3625 1.79489C67.4623 0.915066 68.6583 0.0489807 70.8854 0.0489807C73.2499 0.0489807 74.5147 0.928812 75.8206 1.98735C75.8894 2.04234 75.9169 2.11108 75.9169 2.20731C75.9169 2.2898 75.8756 2.37227 75.8206 2.42726C74.6521 3.37582 73.4561 4.36563 71.0641 4.36563C68.7133 4.36563 67.5173 3.41707 66.3625 2.48226C65.2077 3.41707 64.0118 4.36563 61.661 4.36563C59.4339 4.36563 58.2379 3.51329 57.1381 2.61972C56.0383 3.49954 54.8423 4.36563 52.6152 4.36563C50.2645 4.36563 49.0685 3.41707 47.9137 2.48226C46.7589 3.41707 45.5629 4.36563 43.2121 4.36563H0.774296C0.636824 4.31064 0.526855 4.20067 0.526855 4.04945ZM52.4366 0.557624C50.4432 0.557624 49.3571 1.2725 48.3261 2.09733C49.4121 2.97716 50.5119 3.7745 52.6152 3.7745C54.6086 3.7745 55.6947 3.05963 56.7257 2.23479C55.6397 1.35497 54.5536 0.557624 52.4366 0.557624ZM61.8397 0.557624C59.7226 0.557624 58.6366 1.35497 57.5506 2.23479C58.5816 3.05963 59.6676 3.7745 61.661 3.7745C63.7781 3.7745 64.8641 2.97716 65.9501 2.09733C64.9191 1.2725 63.8468 0.557624 61.8397 0.557624ZM70.8991 0.557624C68.9058 0.557624 67.8198 1.2725 66.7887 2.09733C67.8748 2.97716 68.9745 3.7745 71.0779 3.7745C73.1262 3.7745 74.2122 3.01841 75.2845 2.16607C74.1023 1.24501 72.9612 0.557624 70.8991 0.557624Z" fill="#2460FF"/>
</svg>
